<?xml version="1.0" encoding="utf-8"?>
<!-- Generator: Adobe Illustrator 16.0.0, SVG Export Plug-In . SVG Version: 6.00 Build 0)  -->
<!DOCTYPE svg PUBLIC "-//W3C//DTD SVG 1.1//EN" "http://www.w3.org/Graphics/SVG/1.1/DTD/svg11.dtd">
<svg version="1.1" id="Layer_1" xmlns="http://www.w3.org/2000/svg" xmlns:xlink="http://www.w3.org/1999/xlink" x="0px" y="0px"
	 width="124.125px" height="36.637px" viewBox="0 0 124.125 36.637" enable-background="new 0 0 124.125 36.637"
	 xml:space="preserve">
<g>
	<g>
		<linearGradient id="SVGID_1_" gradientUnits="userSpaceOnUse" x1="84.1553" y1="18.5527" x2="101.0684" y2="18.5527">
			<stop  offset="0" style="stop-color:#FF55A5"/>
			<stop  offset="0.5934" style="stop-color:#FF5779"/>
			<stop  offset="1" style="stop-color:#FF5860"/>
		</linearGradient>
		<path fill="url(#SVGID_1_)" d="M89.955,13.347h-5.8V9.112h16.913v4.234h-5.772v14.647h-5.341V13.347z"/>
		<linearGradient id="SVGID_2_" gradientUnits="userSpaceOnUse" x1="101.958" y1="18.5527" x2="123.375" y2="18.5527">
			<stop  offset="0" style="stop-color:#FF55A5"/>
			<stop  offset="0.5934" style="stop-color:#FF5779"/>
			<stop  offset="1" style="stop-color:#FF5860"/>
		</linearGradient>
		<path fill="url(#SVGID_2_)" d="M123.375,9.112l-8.093,18.882h-5.259l-8.065-18.882h5.772l5.124,12.301l5.234-12.301H123.375z"/>
	</g>
	<g>
		<path fill="#CCCCCC" d="M0.705,25.744l1.83-2.201c0.94,1.286,2.077,1.979,3.438,1.979c1.781,0,2.696-1.063,2.696-3.19v-8.952
			H2.511v-2.696h9.373v11.476c0,4.08-2.028,6.084-5.837,6.084C3.871,28.242,1.892,27.352,0.705,25.744z"/>
		<path fill="#CCCCCC" d="M13.688,21.326c0-3.957,2.967-6.751,7.023-6.751c4.104,0,7.047,2.794,7.047,6.751
			s-2.942,6.776-7.047,6.776C16.656,28.103,13.688,25.283,13.688,21.326z M24.643,21.326c0-2.522-1.681-4.13-3.931-4.13
			c-2.227,0-3.908,1.607-3.908,4.13s1.681,4.131,3.908,4.131C22.962,25.457,24.643,23.849,24.643,21.326z"/>
		<path fill="#CCCCCC" d="M29.07,9.645h3.092v18.35H29.07V9.645z"/>
		<path fill="#CCCCCC" d="M45.787,20.254v7.74h-2.917v-1.607c-0.741,1.139-2.176,1.781-4.154,1.781
			c-3.018,0-4.921-1.658-4.921-3.957c0-2.201,1.484-3.933,5.489-3.933h3.413v-0.197c0-1.806-1.087-2.869-3.289-2.869
			c-1.483,0-3.018,0.494-4.006,1.311l-1.211-2.25c1.409-1.088,3.462-1.632,5.589-1.632C43.586,14.641,45.787,16.445,45.787,20.254z
			 M42.696,23.864v-1.533h-3.19c-2.101,0-2.67,0.792-2.67,1.756c0,1.113,0.939,1.83,2.522,1.83
			C40.867,25.917,42.177,25.225,42.696,23.864z"/>
		<path fill="#CCCCCC" d="M46.752,26.684l1.188-2.349c1.162,0.766,2.943,1.31,4.599,1.31c1.954,0,2.771-0.544,2.771-1.458
			c0-2.523-8.161-0.149-8.161-5.417c0-2.497,2.25-4.129,5.812-4.129c1.756,0,3.758,0.42,4.946,1.137l-1.188,2.35
			c-1.261-0.742-2.523-0.989-3.783-0.989c-1.879,0-2.771,0.618-2.771,1.483c0,2.671,8.161,0.298,8.161,5.466
			c0,2.473-2.275,4.081-5.984,4.081C50.14,28.168,47.939,27.525,46.752,26.684z"/>
		<path fill="#CCCCCC" d="M67.452,27.277c-0.742,0.594-1.855,0.891-2.968,0.891c-2.893,0-4.55-1.533-4.55-4.452V17.36h-2.177v-2.473
			h2.177v-3.017h3.092v3.017h3.536v2.473h-3.536v6.282c0,1.285,0.643,1.979,1.83,1.979c0.644,0,1.261-0.174,1.731-0.544
			L67.452,27.277z"/>
		<path fill="#CCCCCC" d="M68.094,10.758c0-1.039,0.84-1.854,1.978-1.854c1.138,0,1.979,0.766,1.979,1.779
			c0,1.089-0.817,1.929-1.979,1.929C68.934,12.611,68.094,11.796,68.094,10.758z M68.514,14.788h3.092v13.206h-3.092V14.788z"/>
		<path fill="#CCCCCC" d="M73.088,21.392c0-3.957,2.969-6.751,7.148-6.751c2.571,0,4.625,1.063,5.639,3.065L83.5,19.092
			c-0.791-1.262-1.978-1.83-3.289-1.83c-2.275,0-4.006,1.582-4.006,4.13c0,2.572,1.731,4.13,4.006,4.13
			c1.312,0,2.498-0.569,3.289-1.83l2.375,1.386c-1.014,1.978-3.067,3.091-5.639,3.091C76.057,28.168,73.088,25.349,73.088,21.392z"
			/>
		<circle fill="#CCCCCC" cx="20.896" cy="21.273" r="1.682"/>
	</g>
</g>
</svg>
